{
	"asset":{
		"generator":"Khronos glTF Blender I/O v4.0.44",
		"version":"2.0"
	},
	"scene":0,
	"scenes":[
		{
			"name":"Scene",
			"nodes":[
				10
			]
		}
	],
	"nodes":[
		{
			"mesh":0,
			"name":"Base",
			"translation":[
				21.492679595947266,
				0.28465938568115234,
				-23.613262176513672
			]
		},
		{
			"mesh":1,
			"name":"Casing",
			"translation":[
				9.023233413696289,
				-0.5157856345176697,
				5.75422477722168
			]
		},
		{
			"mesh":2,
			"name":"Leg1",
			"translation":[
				111.66683959960938,
				112.54246520996094,
				-41.791099548339844
			]
		},
		{
			"mesh":3,
			"name":"Leg2",
			"translation":[
				111.23184967041016,
				-112.97745513916016,
				-41.791099548339844
			]
		},
		{
			"mesh":4,
			"name":"Leg3",
			"translation":[
				-108.84294891357422,
				119.22010040283203,
				-39.791099548339844
			]
		},
		{
			"mesh":5,
			"name":"Leg4",
			"translation":[
				-108.82818603515625,
				-119.23485565185547,
				-39.79109191894531
			]
		},
		{
			"mesh":6,
			"name":"Prop1",
			"rotation":[
				1,
				0,
				0,
				1.818989186705422e-12
			],
			"scale":[
				-1,
				-1.0000001192092896,
				-1.0000001192092896
			],
			"translation":[
				106.43995666503906,
				107.31039428710938,
				6.746729850769043
			]
		},
		{
			"mesh":7,
			"name":"Prop2",
			"translation":[
				105.9993896484375,
				-107.7558822631836,
				6.745866298675537
			]
		},
		{
			"mesh":8,
			"name":"Prop3",
			"translation":[
				-103.65495300292969,
				114.00154876708984,
				8.735312461853027
			]
		},
		{
			"mesh":9,
			"name":"Prop4",
			"rotation":[
				0,
				-1,
				0,
				1.217933682373792e-14
			],
			"scale":[
				-1,
				-1.0000001192092896,
				-1.0000001192092896
			],
			"translation":[
				-103.54727172851562,
				-114.0089340209961,
				8.732471466064453
			]
		},
		{
			"children":[
				0,
				1,
				2,
				3,
				4,
				5,
				6,
				7,
				8,
				9
			],
			"name":"RC_Quadcopter",
			"rotation":[
				-0.7071256041526794,
				0,
				0,
				0.7070879340171814
			],
			"scale":[
				0.001399998553097248,
				0.0013999984366819263,
				0.0013999984366819263
			]
		}
	],
	"animations":[
		{
			"channels":[
				{
					"sampler":0,
					"target":{
						"node":6,
						"path":"rotation"
					}
				}
			],
			"name":"Prop1Roatation",
			"samplers":[
				{
					"input":50,
					"interpolation":"LINEAR",
					"output":51
				}
			]
		},
		{
			"channels":[
				{
					"sampler":0,
					"target":{
						"node":7,
						"path":"rotation"
					}
				}
			],
			"name":"Prop2Roatation",
			"samplers":[
				{
					"input":50,
					"interpolation":"LINEAR",
					"output":52
				}
			]
		},
		{
			"channels":[
				{
					"sampler":0,
					"target":{
						"node":8,
						"path":"rotation"
					}
				}
			],
			"name":"Prop3Roatation",
			"samplers":[
				{
					"input":50,
					"interpolation":"LINEAR",
					"output":53
				}
			]
		},
		{
			"channels":[
				{
					"sampler":0,
					"target":{
						"node":9,
						"path":"rotation"
					}
				}
			],
			"name":"Prop4Roatation",
			"samplers":[
				{
					"input":50,
					"interpolation":"LINEAR",
					"output":54
				}
			]
		}
	],
	"materials":[
		{
			"doubleSided":true,
			"name":"Matte",
			"pbrMetallicRoughness":{
				"baseColorFactor":[
					0,
					0,
					0,
					1
				],
				"metallicFactor":0,
				"roughnessFactor":0.10000000149011612
			}
		},
		{
			"doubleSided":true,
			"name":"Glossy",
			"pbrMetallicRoughness":{
				"baseColorFactor":[
					0.20862700045108795,
					0.20862700045108795,
					0.20862700045108795,
					1
				],
				"roughnessFactor":0.20000000298023224
			}
		},
		{
			"doubleSided":true,
			"name":"Prop",
			"pbrMetallicRoughness":{
				"baseColorFactor":[
					0.23906894028186798,
					0,
					0.007942168042063713,
					1
				],
				"metallicFactor":0,
				"roughnessFactor":0.20000000298023224
			}
		}
	],
	"meshes":[
		{
			"name":"Base",
			"primitives":[
				{
					"attributes":{
						"COLOR_0":0,
						"POSITION":1,
						"NORMAL":2,
						"TEXCOORD_0":3
					},
					"indices":4,
					"material":0
				}
			]
		},
		{
			"name":"Casing",
			"primitives":[
				{
					"attributes":{
						"COLOR_0":5,
						"POSITION":6,
						"NORMAL":7,
						"TEXCOORD_0":8
					},
					"indices":9,
					"material":1
				}
			]
		},
		{
			"name":"Leg1",
			"primitives":[
				{
					"attributes":{
						"COLOR_0":10,
						"POSITION":11,
						"NORMAL":12,
						"TEXCOORD_0":13
					},
					"indices":14,
					"material":0
				}
			]
		},
		{
			"name":"Leg2",
			"primitives":[
				{
					"attributes":{
						"COLOR_0":15,
						"POSITION":16,
						"NORMAL":17,
						"TEXCOORD_0":18
					},
					"indices":19,
					"material":0
				}
			]
		},
		{
			"name":"Leg3",
			"primitives":[
				{
					"attributes":{
						"COLOR_0":20,
						"POSITION":21,
						"NORMAL":22,
						"TEXCOORD_0":23
					},
					"indices":24,
					"material":0
				}
			]
		},
		{
			"name":"Leg4",
			"primitives":[
				{
					"attributes":{
						"COLOR_0":25,
						"POSITION":26,
						"NORMAL":27,
						"TEXCOORD_0":28
					},
					"indices":29,
					"material":0
				}
			]
		},
		{
			"name":"Prop1",
			"primitives":[
				{
					"attributes":{
						"COLOR_0":30,
						"POSITION":31,
						"NORMAL":32,
						"TEXCOORD_0":33
					},
					"indices":34,
					"material":2
				}
			]
		},
		{
			"name":"Prop2",
			"primitives":[
				{
					"attributes":{
						"COLOR_0":35,
						"POSITION":36,
						"NORMAL":37,
						"TEXCOORD_0":38
					},
					"indices":39,
					"material":2
				}
			]
		},
		{
			"name":"Prop3",
			"primitives":[
				{
					"attributes":{
						"COLOR_0":40,
						"POSITION":41,
						"NORMAL":42,
						"TEXCOORD_0":43
					},
					"indices":44,
					"material":2
				}
			]
		},
		{
			"name":"Prop4",
			"primitives":[
				{
					"attributes":{
						"COLOR_0":45,
						"POSITION":46,
						"NORMAL":47,
						"TEXCOORD_0":48
					},
					"indices":49,
					"material":2
				}
			]
		}
	],
	"accessors":[
		{
			"bufferView":0,
			"componentType":5123,
			"count":1645,
			"normalized":true,
			"type":"VEC4"
		},
		{
			"bufferView":1,
			"componentType":5126,
			"count":1645,
			"max":[
				133.121337890625,
				118.02915954589844,
				35.05936813354492
			],
			"min":[
				-129.4146270751953,
				-118.16690826416016,
				-17.940629959106445
			],
			"type":"VEC3"
		},
		{
			"bufferView":2,
			"componentType":5126,
			"count":1645,
			"type":"VEC3"
		},
		{
			"bufferView":3,
			"componentType":5126,
			"count":1645,
			"type":"VEC2"
		},
		{
			"bufferView":4,
			"componentType":5123,
			"count":6126,
			"type":"SCALAR"
		},
		{
			"bufferView":5,
			"componentType":5123,
			"count":10112,
			"normalized":true,
			"type":"VEC4"
		},
		{
			"bufferView":6,
			"componentType":5126,
			"count":10112,
			"max":[
				206.96556091308594,
				219.7931671142578,
				39.93156814575195
			],
			"min":[
				-212.47445678710938,
				-219.7869415283203,
				-31.7139892578125
			],
			"type":"VEC3"
		},
		{
			"bufferView":7,
			"componentType":5126,
			"count":10112,
			"type":"VEC3"
		},
		{
			"bufferView":8,
			"componentType":5126,
			"count":10112,
			"type":"VEC2"
		},
		{
			"bufferView":9,
			"componentType":5123,
			"count":38541,
			"type":"SCALAR"
		},
		{
			"bufferView":10,
			"componentType":5123,
			"count":715,
			"normalized":true,
			"type":"VEC4"
		},
		{
			"bufferView":11,
			"componentType":5126,
			"count":715,
			"max":[
				40.367855072021484,
				40.35309982299805,
				33.237205505371094
			],
			"min":[
				-29.2685489654541,
				-29.283313751220703,
				-40.76279830932617
			],
			"type":"VEC3"
		},
		{
			"bufferView":12,
			"componentType":5126,
			"count":715,
			"type":"VEC3"
		},
		{
			"bufferView":13,
			"componentType":5126,
			"count":715,
			"type":"VEC2"
		},
		{
			"bufferView":14,
			"componentType":5123,
			"count":2172,
			"type":"SCALAR"
		},
		{
			"bufferView":15,
			"componentType":5123,
			"count":714,
			"normalized":true,
			"type":"VEC4"
		},
		{
			"bufferView":16,
			"componentType":5126,
			"count":714,
			"max":[
				40.353092193603516,
				29.268550872802734,
				33.237205505371094
			],
			"min":[
				-29.283306121826172,
				-40.367862701416016,
				-40.76280212402344
			],
			"type":"VEC3"
		},
		{
			"bufferView":17,
			"componentType":5126,
			"count":714,
			"type":"VEC3"
		},
		{
			"bufferView":18,
			"componentType":5126,
			"count":714,
			"type":"VEC2"
		},
		{
			"bufferView":19,
			"componentType":5123,
			"count":2172,
			"type":"SCALAR"
		},
		{
			"bufferView":20,
			"componentType":5123,
			"count":712,
			"normalized":true,
			"type":"VEC4"
		},
		{
			"bufferView":21,
			"componentType":5126,
			"count":712,
			"max":[
				29.283302307128906,
				40.367862701416016,
				33.237205505371094
			],
			"min":[
				-40.353111267089844,
				-29.268556594848633,
				-40.76279067993164
			],
			"type":"VEC3"
		},
		{
			"bufferView":22,
			"componentType":5126,
			"count":712,
			"type":"VEC3"
		},
		{
			"bufferView":23,
			"componentType":5126,
			"count":712,
			"type":"VEC2"
		},
		{
			"bufferView":24,
			"componentType":5123,
			"count":2172,
			"type":"SCALAR"
		},
		{
			"bufferView":25,
			"componentType":5123,
			"count":712,
			"normalized":true,
			"type":"VEC4"
		},
		{
			"bufferView":26,
			"componentType":5126,
			"count":712,
			"max":[
				29.26854705810547,
				29.283313751220703,
				33.23720169067383
			],
			"min":[
				-40.36786651611328,
				-40.35310745239258,
				-40.762794494628906
			],
			"type":"VEC3"
		},
		{
			"bufferView":27,
			"componentType":5126,
			"count":712,
			"type":"VEC3"
		},
		{
			"bufferView":28,
			"componentType":5126,
			"count":712,
			"type":"VEC2"
		},
		{
			"bufferView":29,
			"componentType":5123,
			"count":2172,
			"type":"SCALAR"
		},
		{
			"bufferView":30,
			"componentType":5123,
			"count":2158,
			"normalized":true,
			"type":"VEC4"
		},
		{
			"bufferView":31,
			"componentType":5126,
			"count":2158,
			"max":[
				43.0565071105957,
				71.8122329711914,
				17.69938087463379
			],
			"min":[
				-43.05754470825195,
				-71.84083557128906,
				-21.30061912536621
			],
			"type":"VEC3"
		},
		{
			"bufferView":32,
			"componentType":5126,
			"count":2158,
			"type":"VEC3"
		},
		{
			"bufferView":33,
			"componentType":5126,
			"count":2158,
			"type":"VEC2"
		},
		{
			"bufferView":34,
			"componentType":5123,
			"count":7272,
			"type":"SCALAR"
		},
		{
			"bufferView":35,
			"componentType":5123,
			"count":2160,
			"normalized":true,
			"type":"VEC4"
		},
		{
			"bufferView":36,
			"componentType":5126,
			"count":2160,
			"max":[
				47.80311965942383,
				68.24488830566406,
				17.700244903564453
			],
			"min":[
				-47.82454299926758,
				-68.24528503417969,
				-21.299755096435547
			],
			"type":"VEC3"
		},
		{
			"bufferView":37,
			"componentType":5126,
			"count":2160,
			"type":"VEC3"
		},
		{
			"bufferView":38,
			"componentType":5126,
			"count":2160,
			"type":"VEC2"
		},
		{
			"bufferView":39,
			"componentType":5123,
			"count":7242,
			"type":"SCALAR"
		},
		{
			"bufferView":40,
			"componentType":5123,
			"count":2273,
			"normalized":true,
			"type":"VEC4"
		},
		{
			"bufferView":41,
			"componentType":5126,
			"count":2273,
			"max":[
				83.06126403808594,
				16.399465560913086,
				17.710796356201172
			],
			"min":[
				-82.95320129394531,
				-16.40190315246582,
				-21.289203643798828
			],
			"type":"VEC3"
		},
		{
			"bufferView":42,
			"componentType":5126,
			"count":2273,
			"type":"VEC3"
		},
		{
			"bufferView":43,
			"componentType":5126,
			"count":2273,
			"type":"VEC2"
		},
		{
			"bufferView":44,
			"componentType":5123,
			"count":7584,
			"type":"SCALAR"
		},
		{
			"bufferView":45,
			"componentType":5123,
			"count":2215,
			"normalized":true,
			"type":"VEC4"
		},
		{
			"bufferView":46,
			"componentType":5126,
			"count":2215,
			"max":[
				81.86055755615234,
				23.88085174560547,
				17.713638305664062
			],
			"min":[
				-81.98377990722656,
				-23.849266052246094,
				-21.286361694335938
			],
			"type":"VEC3"
		},
		{
			"bufferView":47,
			"componentType":5126,
			"count":2215,
			"type":"VEC3"
		},
		{
			"bufferView":48,
			"componentType":5126,
			"count":2215,
			"type":"VEC2"
		},
		{
			"bufferView":49,
			"componentType":5123,
			"count":7476,
			"type":"SCALAR"
		},
		{
			"bufferView":50,
			"componentType":5126,
			"count":100,
			"max":[
				4.166666666666667
			],
			"min":[
				0.041666666666666664
			],
			"type":"SCALAR"
		},
		{
			"bufferView":51,
			"componentType":5126,
			"count":100,
			"type":"VEC4"
		},
		{
			"bufferView":52,
			"componentType":5126,
			"count":100,
			"type":"VEC4"
		},
		{
			"bufferView":53,
			"componentType":5126,
			"count":100,
			"type":"VEC4"
		},
		{
			"bufferView":54,
			"componentType":5126,
			"count":100,
			"type":"VEC4"
		}
	],
	"bufferViews":[
		{
			"buffer":0,
			"byteLength":13160,
			"byteOffset":0,
			"target":34962
		},
		{
			"buffer":0,
			"byteLength":19740,
			"byteOffset":13160,
			"target":34962
		},
		{
			"buffer":0,
			"byteLength":19740,
			"byteOffset":32900,
			"target":34962
		},
		{
			"buffer":0,
			"byteLength":13160,
			"byteOffset":52640,
			"target":34962
		},
		{
			"buffer":0,
			"byteLength":12252,
			"byteOffset":65800,
			"target":34963
		},
		{
			"buffer":0,
			"byteLength":80896,
			"byteOffset":78052,
			"target":34962
		},
		{
			"buffer":0,
			"byteLength":121344,
			"byteOffset":158948,
			"target":34962
		},
		{
			"buffer":0,
			"byteLength":121344,
			"byteOffset":280292,
			"target":34962
		},
		{
			"buffer":0,
			"byteLength":80896,
			"byteOffset":401636,
			"target":34962
		},
		{
			"buffer":0,
			"byteLength":77082,
			"byteOffset":482532,
			"target":34963
		},
		{
			"buffer":0,
			"byteLength":5720,
			"byteOffset":559616,
			"target":34962
		},
		{
			"buffer":0,
			"byteLength":8580,
			"byteOffset":565336,
			"target":34962
		},
		{
			"buffer":0,
			"byteLength":8580,
			"byteOffset":573916,
			"target":34962
		},
		{
			"buffer":0,
			"byteLength":5720,
			"byteOffset":582496,
			"target":34962
		},
		{
			"buffer":0,
			"byteLength":4344,
			"byteOffset":588216,
			"target":34963
		},
		{
			"buffer":0,
			"byteLength":5712,
			"byteOffset":592560,
			"target":34962
		},
		{
			"buffer":0,
			"byteLength":8568,
			"byteOffset":598272,
			"target":34962
		},
		{
			"buffer":0,
			"byteLength":8568,
			"byteOffset":606840,
			"target":34962
		},
		{
			"buffer":0,
			"byteLength":5712,
			"byteOffset":615408,
			"target":34962
		},
		{
			"buffer":0,
			"byteLength":4344,
			"byteOffset":621120,
			"target":34963
		},
		{
			"buffer":0,
			"byteLength":5696,
			"byteOffset":625464,
			"target":34962
		},
		{
			"buffer":0,
			"byteLength":8544,
			"byteOffset":631160,
			"target":34962
		},
		{
			"buffer":0,
			"byteLength":8544,
			"byteOffset":639704,
			"target":34962
		},
		{
			"buffer":0,
			"byteLength":5696,
			"byteOffset":648248,
			"target":34962
		},
		{
			"buffer":0,
			"byteLength":4344,
			"byteOffset":653944,
			"target":34963
		},
		{
			"buffer":0,
			"byteLength":5696,
			"byteOffset":658288,
			"target":34962
		},
		{
			"buffer":0,
			"byteLength":8544,
			"byteOffset":663984,
			"target":34962
		},
		{
			"buffer":0,
			"byteLength":8544,
			"byteOffset":672528,
			"target":34962
		},
		{
			"buffer":0,
			"byteLength":5696,
			"byteOffset":681072,
			"target":34962
		},
		{
			"buffer":0,
			"byteLength":4344,
			"byteOffset":686768,
			"target":34963
		},
		{
			"buffer":0,
			"byteLength":17264,
			"byteOffset":691112,
			"target":34962
		},
		{
			"buffer":0,
			"byteLength":25896,
			"byteOffset":708376,
			"target":34962
		},
		{
			"buffer":0,
			"byteLength":25896,
			"byteOffset":734272,
			"target":34962
		},
		{
			"buffer":0,
			"byteLength":17264,
			"byteOffset":760168,
			"target":34962
		},
		{
			"buffer":0,
			"byteLength":14544,
			"byteOffset":777432,
			"target":34963
		},
		{
			"buffer":0,
			"byteLength":17280,
			"byteOffset":791976,
			"target":34962
		},
		{
			"buffer":0,
			"byteLength":25920,
			"byteOffset":809256,
			"target":34962
		},
		{
			"buffer":0,
			"byteLength":25920,
			"byteOffset":835176,
			"target":34962
		},
		{
			"buffer":0,
			"byteLength":17280,
			"byteOffset":861096,
			"target":34962
		},
		{
			"buffer":0,
			"byteLength":14484,
			"byteOffset":878376,
			"target":34963
		},
		{
			"buffer":0,
			"byteLength":18184,
			"byteOffset":892860,
			"target":34962
		},
		{
			"buffer":0,
			"byteLength":27276,
			"byteOffset":911044,
			"target":34962
		},
		{
			"buffer":0,
			"byteLength":27276,
			"byteOffset":938320,
			"target":34962
		},
		{
			"buffer":0,
			"byteLength":18184,
			"byteOffset":965596,
			"target":34962
		},
		{
			"buffer":0,
			"byteLength":15168,
			"byteOffset":983780,
			"target":34963
		},
		{
			"buffer":0,
			"byteLength":17720,
			"byteOffset":998948,
			"target":34962
		},
		{
			"buffer":0,
			"byteLength":26580,
			"byteOffset":1016668,
			"target":34962
		},
		{
			"buffer":0,
			"byteLength":26580,
			"byteOffset":1043248,
			"target":34962
		},
		{
			"buffer":0,
			"byteLength":17720,
			"byteOffset":1069828,
			"target":34962
		},
		{
			"buffer":0,
			"byteLength":14952,
			"byteOffset":1087548,
			"target":34963
		},
		{
			"buffer":0,
			"byteLength":400,
			"byteOffset":1102500
		},
		{
			"buffer":0,
			"byteLength":1600,
			"byteOffset":1102900
		},
		{
			"buffer":0,
			"byteLength":1600,
			"byteOffset":1104500
		},
		{
			"buffer":0,
			"byteLength":1600,
			"byteOffset":1106100
		},
		{
			"buffer":0,
			"byteLength":1600,
			"byteOffset":1107700
		}
	],
	"buffers":[
		{
			"byteLength":1109300,
			"uri":"rc_quadcopter.bin"
		}
	]
}
