<svg height="800" width="800" version="1.1" id="_x32_" xmlns="http://www.w3.org/2000/svg" viewBox="0 0 512 512" xml:space="preserve"><style>.st0{fill:#2ffaff}</style><path class="st0" d="M133.5 133.503c-5.298 5.29-5.298 13.866 0 19.164s13.874 5.298 19.172 0c5.28-5.298 5.28-13.874 0-19.164-5.299-5.297-13.874-5.297-19.172 0m19.967-6.573 5.751 5.77 42.426-42.418a3.7 3.7 0 0 0-1.618-6.171l-4.279-1.207a15.73 15.73 0 0 0-15.354 4.04l-21.936 21.945c-.001 0 2.301 10.749-4.99 18.041m-20.755 32.283-5.777-5.751-42.408 42.408a3.72 3.72 0 0 0-.968 3.551 3.67 3.67 0 0 0 2.585 2.62l4.279 1.207a15.72 15.72 0 0 0 15.346-4.022l21.945-21.945s-2.303-10.758 4.998-18.068m245.798-6.546c5.289-5.298 5.289-13.874 0-19.164-5.29-5.297-13.874-5.297-19.18 0-5.28 5.29-5.28 13.866 0 19.164 5.306 5.298 13.89 5.298 19.18 0m.787-25.737 5.768 5.77 42.426-42.418a3.71 3.71 0 0 0 .959-3.543 3.71 3.71 0 0 0-2.586-2.628l-4.278-1.207a15.72 15.72 0 0 0-15.346 4.04l-21.945 21.945s2.303 10.749-4.998 18.041m-20.737 32.283-5.777-5.751-42.418 42.408a3.72 3.72 0 0 0-.967 3.551 3.66 3.66 0 0 0 2.584 2.62l4.28 1.207a15.71 15.71 0 0 0 15.346-4.022l21.936-21.945s-2.286-10.758 5.016-18.068M133.5 359.333c-5.298 5.307-5.298 13.882 0 19.172 5.298 5.289 13.874 5.289 19.172 0 5.28-5.289 5.28-13.865 0-19.172-5.299-5.28-13.874-5.28-19.172 0m19.967-6.546 5.751 5.768 42.426-42.426a3.69 3.69 0 0 0 .958-3.544 3.68 3.68 0 0 0-2.576-2.627l-4.279-1.207a15.76 15.76 0 0 0-15.354 4.023l-21.936 21.953c-.001 0 2.301 10.758-4.99 18.06m-20.755 32.282-5.777-5.769-42.408 42.418a3.72 3.72 0 0 0-.968 3.552 3.7 3.7 0 0 0 2.585 2.619l4.279 1.198a15.7 15.7 0 0 0 15.346-4.023l21.945-21.936c0 .001-2.303-10.766 4.998-18.059m226.617-25.736c-5.28 5.307-5.28 13.882 0 19.172 5.307 5.289 13.891 5.289 19.18 0s5.289-13.865 0-19.172c-5.289-5.28-13.873-5.28-19.18 0m19.968-6.546 5.768 5.768 42.426-42.426a3.694 3.694 0 0 0-1.627-6.171l-4.278-1.207a15.75 15.75 0 0 0-15.346 4.023l-21.945 21.953s2.303 10.758-4.998 18.06m-20.737 32.282-5.777-5.769-42.418 42.418a3.72 3.72 0 0 0-.967 3.552c.325 1.275 1.318 2.26 2.584 2.619l4.28 1.198c5.46 1.532 11.332 0 15.346-4.023l21.936-21.936c0 .001-2.286-10.766 5.016-18.059"/><path class="st0" d="M456.779 255.996a143.6 143.6 0 0 0 30.768-32.908 142.4 142.4 0 0 0 18.016-37.47c4.185-13.445 6.436-27.772 6.436-42.536 0-19.711-4.014-38.574-11.255-55.7-10.869-25.702-28.988-47.51-51.814-62.932a143.1 143.1 0 0 0-37.462-18.008C398.022 2.257 383.695.006 368.914.006c-19.685 0-38.566 4.006-55.683 11.255a143.35 143.35 0 0 0-57.224 43.966c-9.269-11.922-20.396-22.304-32.926-30.777A143 143 0 0 0 185.62 6.442C172.175 2.257 157.856.006 143.083.006c-19.71 0-38.574 4.006-55.708 11.255-25.692 10.868-47.483 28.986-62.913 51.822a142.1 142.1 0 0 0-18.025 37.47A143.2 143.2 0 0 0 0 143.081c0 19.71 4.015 38.557 11.255 55.692 9.595 22.68 24.838 42.332 43.966 57.224a143.8 143.8 0 0 0-30.759 32.917 142.6 142.6 0 0 0-18.025 37.461A143.5 143.5 0 0 0 0 368.911c0 19.71 4.015 38.574 11.255 55.7 10.87 25.71 28.988 47.517 51.814 62.94a142.2 142.2 0 0 0 37.479 18.016 143.1 143.1 0 0 0 42.537 6.428c19.703.008 38.566-4.006 55.683-11.255 22.681-9.594 42.332-24.837 57.224-43.966a143.7 143.7 0 0 0 32.926 30.777 142.5 142.5 0 0 0 37.461 18.016 143.3 143.3 0 0 0 42.537 6.428c19.702.008 38.574-4.006 55.7-11.255 25.71-10.869 47.517-28.988 62.932-51.814a142.2 142.2 0 0 0 18.016-37.47C509.748 398.019 512 383.7 512 368.911c0-19.694-4.014-38.557-11.255-55.674-9.594-22.681-24.82-42.332-43.966-57.241M233.996 424.191a106.9 106.9 0 0 1-31.445 32.968 106.4 106.4 0 0 1-27.816 13.378c-9.996 3.107-20.6 4.784-31.65 4.784-14.738 0-28.697-2.987-41.407-8.353-19.069-8.071-35.356-21.576-46.825-38.583a106 106 0 0 1-13.385-27.816c-3.098-9.98-4.776-20.583-4.776-31.658 0-14.73 2.969-28.681 8.362-41.398 8.045-19.069 21.568-35.348 38.557-46.808 1.369-.941 2.79-1.823 4.202-2.696h110.552a107.1 107.1 0 0 1 32.952 31.445 115 115 0 0 1 2.679 4.202zm0-225.83c-7.986 13.112-18.744 24.358-31.445 32.96a121 121 0 0 1-4.194 2.67H87.804a106.8 106.8 0 0 1-32.952-31.436 106.4 106.4 0 0 1-13.385-27.833c-3.098-9.98-4.776-20.592-4.776-31.642 0-14.747 2.969-28.689 8.362-41.407 8.045-19.069 21.568-35.347 38.557-46.842a106.6 106.6 0 0 1 27.824-13.36c9.98-3.107 20.584-4.776 31.65-4.776 14.73 0 28.68 2.97 41.399 8.345 19.077 8.062 35.355 21.568 46.833 38.566.924 1.386 1.814 2.79 2.679 4.211v110.544zM278.005 87.8a107.3 107.3 0 0 1 31.462-32.968 106 106 0 0 1 27.816-13.36c9.98-3.107 20.584-4.776 31.633-4.776 14.755 0 28.697 2.97 41.407 8.345 19.069 8.062 35.356 21.568 46.825 38.566a105.9 105.9 0 0 1 13.386 27.833c3.107 9.979 4.775 20.592 4.775 31.641 0 14.738-2.969 28.689-8.336 41.407-8.071 19.06-21.585 35.34-38.574 46.834a106 106 0 0 1-4.211 2.67H313.626c-13.095-7.986-24.367-18.735-32.925-31.436a120 120 0 0 1-2.696-4.211zm188.967 322.518c-8.071 19.069-21.585 35.356-38.574 46.842a106.7 106.7 0 0 1-27.824 13.378c-9.98 3.107-20.592 4.784-31.659 4.784-14.73 0-28.68-2.987-41.407-8.353-19.069-8.071-35.339-21.576-46.808-38.583a100 100 0 0 1-2.696-4.202V313.647c8.002-13.112 18.743-24.375 31.462-32.943a93 93 0 0 1 4.202-2.696h110.527a106.8 106.8 0 0 1 32.952 31.445 105.6 105.6 0 0 1 13.386 27.833c3.107 9.971 4.775 20.576 4.775 31.625 0 14.764-2.969 28.697-8.336 41.407"/></svg>